/* XPM */
static char *_e720ae01c1f46e2f0fe7db16f112044LX6lp4hgXbIBDJwN[] = {
/* columns rows colors chars-per-pixel */
"32 32 13 1 ",
"  c None",
". c black",
"X c #FFB900",
"o c #FFCB19",
"O c #FFF300",
"+ c #DEDCB7",
"@ c #FFFCBF",
"# c #FEFBD0",
"$ c #FFFDD3",
"% c #FFFDD5",
"& c #FFFDD8",
"* c #FFFDDD",
"= c #FFF8E0",
/* pixels */
"                                ",
"       $$$$$       $$$$         ",
"      $$$$$$$$$$$$$$$$$$$       ",
"      $+++++....+++++++++       ",
"      $+*.+##########..%.$      ",
"     $$.***..........**=+       ",
"       .***************=.       ",
"       .**************==.       ",
"       .*..**..**..**..=.       ",
"      ...**..**..**..==..       ",
"     .@@************===o.       ",
"    .@@@O..**..O*..O=..o.       ",
"   .@@...OO..OO..OO..oo..       ",
"  .@@. .OOOOOOOOOOOooooX.       ",
" .@@.  .O..OO..OO..oo..X.       ",
".@@.   ..OO..OO..oo..oX..       ",
".@.    .OOOOOOOOooooooXX.       ",
".@.    .O..OO..oo..oo..X.       ",
".@.    ..OO..Oo..oo..XX..       ",
".@.    .OOOOooooooooXXXX.       ",
".@@.   .O..Oo..oo..XX..X.       ",
" .@@.  ..OO..oo..oX..XX..       ",
"  .@@. .OOOoooooooXXXXXX.       ",
"   .@@..O..oo..oo..XX..X.       ",
"    .@&@.Oo..oo..XX..XX..       ",
"     .@@OOoooooXXXXXXXXX.       ",
"      ..O..oo..XX..XX..X.       ",
"       ..oo..XX..XX..XX..       ",
"      .XXXXXXXXXXXXXXXXXX.      ",
"     .XXXXXXXXXXXXXXXXXXXX.     ",
"    .XXXXXXXXXXXXXXXXXXXXXX.    ",
"    ........................    "
};
