/* XPM */
static char *_c557739070a4196b7ffdf1d246fbba0tWuj9BNt2JvhNXjs[] = {
/* columns rows colors chars-per-pixel */
"32 32 9 1 ",
"  c None",
". c black",
"X c #6D5827",
"o c #89712A",
"O c #89722A",
"+ c #89762A",
"@ c #E7B367",
"# c #5B6EE1",
"$ c #D1D6D9",
/* pixels */
"             ......             ",
"            .@@@@@@.            ",
"            .@@@@@@.            ",
"             .XXXX.             ",
"              .XX.              ",
"              .$$.              ",
"             ..$$..             ",
"             .$$$$.             ",
"             .$##$.             ",
"             .#$$#.             ",
"            .$#..#$.            ",
"            .$#$$#$.            ",
"            .$$##$$.            ",
"           .++$$$$oo.           ",
"           .+++$$+oo.           ",
"           .++++++oo.           ",
"          .++++++++oo.          ",
"          .+++++++ooo.          ",
"          .$++++++oo$.          ",
"          .$$++++++$$.          ",
"          .$$$++++$$$.          ",
"          .$$$$##$$$$.          ",
"          .+$$#$$#$$o.          ",
"          .++$#..#$oo.          ",
"          .+++$##$+oo.          ",
"          .+++++++++o.          ",
"          .+++++++++o.          ",
"          .+++++++++o.          ",
"          .+++++++++o.          ",
"          .+++++++++o.          ",
"          .++++++++++.          ",
"          ............          "
};
