/* XPM */
static char *_72f62d438014931f92a6fee13c6a9a17LULK4ZdKq2ZhFbI[] = {
/* columns rows colors chars-per-pixel */
"32 32 164 2 ",
"   c None",
".  c #121313",
"X  c #1D1D1D",
"o  c #211D1A",
"O  c #21201F",
"+  c #242323",
"@  c #2A2726",
"#  c #2E2A27",
"$  c #2D2D2C",
"%  c #312922",
"&  c #392D26",
"*  c #302B2A",
"=  c #35312C",
"-  c #39332F",
";  c #343333",
":  c #3A3532",
">  c #383738",
",  c #3B3A3A",
"<  c #42362D",
"1  c #463D37",
"2  c #523F35",
"3  c #663038",
"4  c #46403F",
"5  c #51453E",
"6  c #694437",
"7  c #624D3D",
"8  c #754D3F",
"9  c #5F3244",
"0  c #583D48",
"q  c #523954",
"w  c #663146",
"e  c #6D3B42",
"r  c #454444",
"t  c #4C4541",
"y  c #4A4748",
"u  c #544440",
"i  c #614E42",
"p  c #635246",
"a  c #675349",
"s  c #6E5A4B",
"d  c #6A524A",
"f  c #775045",
"g  c #74574F",
"h  c #735B48",
"j  c #795F4C",
"k  c #7A5345",
"l  c #615F5F",
"z  c #7F644E",
"x  c #756254",
"c  c #7C6556",
"v  c #77655A",
"b  c #78645A",
"n  c #7D6A5B",
"m  c #795660",
"M  c #735E65",
"N  c #6A6463",
"B  c #804D4D",
"V  c #825545",
"C  c #83584A",
"Z  c #895E54",
"A  c #8D6455",
"S  c #846A57",
"D  c #846D5B",
"F  c #886D5C",
"G  c #916C5A",
"H  c #996D5B",
"J  c #8A715D",
"K  c #9C725C",
"L  c #9E785E",
"P  c #A2765C",
"I  c #A47A5F",
"U  c #815A64",
"Y  c #856963",
"T  c #916C61",
"R  c #996E64",
"E  c #9D636F",
"W  c #926E6E",
"Q  c #877360",
"!  c #8B7262",
"~  c #8C7569",
"^  c #937364",
"/  c #9A7263",
"(  c #957A65",
")  c #9D7A66",
"_  c #957769",
"`  c #947B6C",
"'  c #9B7F6B",
"]  c #9E6672",
"[  c #936A71",
"{  c #9E6872",
"}  c #8F7B73",
"|  c #8C7D7B",
" . c #9B777C",
".. c #927B72",
"X. c #A27C62",
"o. c #A87F61",
"O. c #A07468",
"+. c #A37C6C",
"@. c #A56C76",
"#. c #A57278",
"$. c #AA757E",
"%. c #98836F",
"&. c #928074",
"*. c #A38266",
"=. c #AB8565",
"-. c #AE8867",
";. c #A2836C",
":. c #A98569",
">. c #AB8B6C",
",. c #B28D6E",
"<. c #A28572",
"1. c #AA8676",
"2. c #A68A73",
"3. c #AA8C75",
"4. c #A48B7A",
"5. c #AC8D78",
"6. c #B28F71",
"7. c #AF937A",
"8. c #B69476",
"9. c #B39173",
"0. c #B29578",
"q. c #B79778",
"w. c #B0937D",
"e. c #B89779",
"r. c #B79879",
"t. c #B99B7C",
"y. c #B89E7E",
"u. c #A87480",
"i. c #A27F82",
"p. c #AD7C83",
"a. c #AF7F88",
"s. c #8E8788",
"d. c #9D8284",
"f. c #968A8A",
"g. c #9E908F",
"h. c #928891",
"j. c #9C9291",
"k. c #A18586",
"l. c #AD8086",
"z. c #A68D80",
"x. c #AF838B",
"c. c #AC898E",
"v. c #B08C82",
"b. c #B1838A",
"n. c #B0898E",
"m. c #AD988E",
"M. c #B59783",
"N. c #B79B82",
"B. c #B99D82",
"V. c #BD9F85",
"C. c #BC9F84",
"Z. c #B38D93",
"A. c #A49796",
"S. c #A79D9B",
"D. c #A99B9B",
"F. c #B29396",
"G. c #B19E96",
"H. c #BFA185",
"J. c #BDA084",
"K. c #BEA289",
"L. c #ABA3A3",
"P. c #B1A5A5",
"I. c #C1A48A",
"U. c #C0A38A",
/* pixels */
"                                                                ",
"                                                                ",
"                                                                ",
"                                                                ",
"                              r r r , # $ $ + + + ,             ",
"                      $ @ + O O + O O o + + X O + $ ; $         ",
"              @ + + @ # = : - - = = = O + O O O X X X + + ;     ",
"            @ * 5 x J %.%.2.3.3.3.2.;.%.J n x p 5 : # + X ;     ",
"            1 F 7.y.J.N.J.N.J.J.H.H.H.I.I.I.V.V.J.7.2.n 4 @     ",
"            ( 6.>.D s p p s c 7.C.J.J.J.5.! M x x n ! 4.%.= @ y ",
"            *.>.%.z p p z J %.8.t.t.e.8.;.J D D v c c ) 2.5 ;   ",
"          ' *.>.h O X X O 7 >.q.r.8.8.9.9.;.p t 4 - p %.2.v     ",
"          %.;.:.p X . . . 5 =.8.r.r.q.8.9.S o . . . o c M.      ",
"            X.o.I z 7 7 z I ,.,.,.,.9.9.9.X.7 & % < h :.7.      ",
"            X.X.I *.=.=.=.-.-.=.=.I =.-.=.=.=.P L X.=.:.        ",
"                K K K K H H P P P I I I I I I I I I +.          ",
"                      R Z f 6 k V f 8 k C A T / H               ",
"                      U w m ..;.;./ Y 0 e W                     ",
"                  P.g.M 3 B +.5.3.4.W 9 q h.                    ",
"                  D.m.<.A G H H ' x ~ R Y A.P.                  ",
"                  3.1.;.( _ D g d d ^ 2.w.4.d.                  ",
"                      A.| f.D.g.f.| | } z.                      ",
"                      j.j.L.D.k.D.s.h.D.                        ",
"                    F.i.d.i. .[ i.d.c.Z.                        ",
"                    c.a.a.$.b.  @.u.a.Z.                        ",
"                    n.p.p.p.    E $.a.b.                        ",
"                    p.#.$.l.    ] @.p.a.                        ",
"                      O.+.      v.+.1.                          ",
"                      R /       M.:.3.                          ",
"                    r 5 u       ..T &.                          ",
"                    > ; r       ; : ,                           ",
"                    N l         r , r                           "
};
